# Blender v2.76 (sub 0) OBJ File: ''
# www.blender.org
mtllib ikea_glass.mtl
o IkeaGlass_Cylinder.001
v -0.014142 0.014142 0.012480
v 0.000000 0.020000 0.012480
v 0.000000 0.020000 0.005280
v -0.014142 0.014142 0.005280
v -0.014142 -0.014142 0.012480
v -0.016122 -0.016122 0.063420
v -0.019460 -0.008062 0.063420
v -0.022800 0.000000 0.063420
v -0.020000 0.000000 0.012480
v 0.000000 -0.020000 0.012480
v 0.000000 -0.022800 0.063420
v -0.008062 -0.019462 0.063420
v 0.014142 -0.014142 0.012480
v 0.016122 -0.016122 0.063420
v 0.008062 -0.019462 0.063420
v 0.020000 0.000000 0.012480
v 0.022800 0.000000 0.063420
v 0.019460 -0.008062 0.063420
v 0.014142 0.014142 0.012480
v 0.016122 0.016122 0.063420
v 0.019460 0.008062 0.063420
v 0.000000 0.022800 0.063420
v 0.008062 0.019460 0.063420
v -0.016122 0.016122 0.063420
v -0.008062 0.019460 0.063420
v -0.019460 0.008062 0.063420
v -0.016970 -0.016970 0.066030
v -0.017734 -0.017734 0.088680
v -0.023548 -0.009754 0.088680
v -0.022534 -0.009334 0.066030
v -0.009334 -0.022534 0.066030
v -0.009754 -0.023548 0.088680
v 0.000000 -0.024000 0.066030
v 0.000000 -0.025080 0.088680
v 0.009334 -0.022534 0.066030
v 0.009754 -0.023548 0.088680
v 0.016970 -0.016970 0.066030
v 0.017734 -0.017734 0.088680
v 0.022534 -0.009334 0.066030
v 0.023548 -0.009754 0.088680
v 0.024000 0.000000 0.066030
v 0.025080 0.000000 0.088680
v 0.022534 0.009334 0.066030
v 0.023548 0.009754 0.088680
v 0.016970 0.016970 0.066030
v 0.017734 0.017734 0.088680
v 0.009334 0.022534 0.066030
v 0.009754 0.023548 0.088680
v 0.000000 0.024000 0.066030
v 0.000000 0.025080 0.088680
v -0.009334 0.022534 0.066030
v -0.009754 0.023548 0.088680
v -0.016970 0.016970 0.066030
v -0.017734 0.017734 0.088680
v -0.022534 0.009334 0.066030
v -0.023548 0.009754 0.088680
v -0.024000 0.000000 0.066030
v -0.025080 0.000000 0.088680
v -0.020000 0.000000 0.005280
v 0.014142 0.014142 0.005280
v 0.020000 0.000000 0.005280
v 0.014142 -0.014142 0.005280
v 0.000000 -0.020000 0.005280
v -0.014142 -0.014142 0.005280
v -0.012728 0.012728 0.012524
v -0.012392 0.012392 0.012394
v 0.000000 0.017524 0.012394
v 0.000000 0.018000 0.012524
v -0.012728 -0.012728 0.012524
v -0.018000 0.000000 0.012524
v -0.020948 0.000000 0.064098
v -0.017726 -0.007342 0.064040
v -0.014812 -0.014812 0.064098
v 0.000000 -0.018000 0.012524
v -0.007342 -0.017726 0.064040
v 0.000000 -0.020948 0.064098
v 0.012728 -0.012728 0.012524
v 0.007342 -0.017726 0.064040
v 0.014812 -0.014812 0.064098
v 0.018000 0.000000 0.012524
v 0.017726 -0.007342 0.064040
v 0.020948 0.000000 0.064098
v 0.012728 0.012728 0.012524
v 0.017726 0.007342 0.064040
v 0.014812 0.014812 0.064098
v 0.007342 0.017726 0.064040
v 0.000000 0.020948 0.064098
v -0.007342 0.017726 0.064040
v -0.014812 0.014812 0.064098
v -0.017726 0.007342 0.064040
v -0.015632 -0.015632 0.066610
v -0.020776 -0.008606 0.066584
v -0.021616 -0.008954 0.088680
v -0.016256 -0.016256 0.088680
v -0.008606 -0.020776 0.066584
v -0.008954 -0.021616 0.088680
v 0.000000 -0.022106 0.066610
v 0.000000 -0.022990 0.088680
v 0.008606 -0.020776 0.066584
v 0.008954 -0.021616 0.088680
v 0.015632 -0.015632 0.066610
v 0.016256 -0.016256 0.088680
v 0.020776 -0.008606 0.066584
v 0.021616 -0.008954 0.088680
v 0.022106 0.000000 0.066610
v 0.022990 0.000000 0.088680
v 0.020776 0.008606 0.066584
v 0.021616 0.008954 0.088680
v 0.015632 0.015632 0.066610
v 0.016256 0.016256 0.088680
v 0.008606 0.020776 0.066584
v 0.008954 0.021616 0.088680
v 0.000000 0.022106 0.066610
v 0.000000 0.022990 0.088680
v -0.008606 0.020776 0.066584
v -0.008954 0.021616 0.088680
v -0.015632 0.015632 0.066610
v -0.016256 0.016256 0.088680
v -0.020776 0.008606 0.066584
v -0.021616 0.008954 0.088680
v -0.022106 0.000000 0.066610
v -0.022990 0.000000 0.088680
v -0.017524 0.000000 0.012394
v -0.012392 -0.012392 0.012394
v 0.000000 -0.017524 0.012394
v 0.012392 -0.012392 0.012394
v 0.017524 0.000000 0.012394
v 0.012392 0.012392 0.012394
vn -0.382700 0.923900 0.000000
vn -0.922700 -0.382200 -0.050700
vn -0.382200 -0.922700 -0.050700
vn 0.382200 -0.922700 -0.050700
vn 0.922700 -0.382200 -0.050700
vn 0.922700 0.382200 -0.050700
vn 0.382200 0.922700 -0.050700
vn -0.382200 0.922700 -0.050700
vn -0.922700 0.382200 -0.050700
vn -0.807300 -0.588200 -0.047100
vn -0.588200 -0.807300 -0.047100
vn -0.155000 -0.986800 -0.047100
vn 0.155000 -0.986800 -0.047100
vn 0.588200 -0.807300 -0.047100
vn 0.807300 -0.588200 -0.047100
vn 0.986800 -0.155000 -0.047100
vn 0.986800 0.155000 -0.047100
vn 0.807300 0.588200 -0.047100
vn 0.588200 0.807300 -0.047100
vn 0.155000 0.986800 -0.047100
vn -0.155000 0.986800 -0.047100
vn -0.588200 0.807300 -0.047100
vn -0.807300 0.588200 -0.047100
vn -0.732900 0.202500 -0.649500
vn -0.986800 -0.155000 -0.047100
vn -0.732900 -0.202500 -0.649500
vn -0.986800 0.155000 -0.047100
vn -0.661500 0.375200 -0.649400
vn -0.375200 0.661500 -0.649400
vn -0.202500 0.732900 -0.649500
vn 0.202500 0.732900 -0.649500
vn 0.375200 0.661500 -0.649400
vn 0.661500 0.375200 -0.649400
vn 0.732900 0.202500 -0.649500
vn 0.732900 -0.202500 -0.649500
vn 0.661500 -0.375200 -0.649400
vn 0.374800 -0.661400 -0.649700
vn 0.202400 -0.733100 -0.649300
vn -0.202400 -0.733100 -0.649300
vn -0.374800 -0.661400 -0.649600
vn -0.374900 -0.661500 -0.649500
vn -0.374800 -0.661400 -0.649700
vn -0.374900 -0.661400 -0.649600
vn -0.661500 -0.375200 -0.649400
vn 0.000000 0.000000 -1.000000
vn 0.923900 -0.382700 0.000000
vn -0.923900 -0.382700 0.000000
vn 0.382700 0.923900 0.000000
vn 0.382700 -0.923900 0.000000
vn -0.923900 0.382700 0.000000
vn 0.923900 0.382700 0.000000
vn -0.382700 -0.923900 0.000000
vn 0.108900 -0.262900 0.958700
vn 0.922700 0.382200 0.051000
vn 0.382200 0.922700 0.051000
vn -0.382200 0.922700 0.051000
vn -0.922700 0.382200 0.051000
vn -0.922700 -0.382200 0.051000
vn -0.382200 -0.922700 0.051000
vn 0.382200 -0.922700 0.051000
vn 0.922700 -0.382200 0.051000
vn 0.805800 0.590800 0.039700
vn 0.590800 0.805800 0.039700
vn 0.152000 0.987600 0.039700
vn -0.152000 0.987600 0.039700
vn -0.590800 0.805800 0.039700
vn -0.805800 0.590800 0.039700
vn -0.987600 0.152000 0.039700
vn -0.987600 -0.152000 0.039700
vn -0.805800 -0.590800 0.039700
vn -0.590800 -0.805800 0.039700
vn -0.152000 -0.987600 0.039700
vn 0.152000 -0.987600 0.039700
vn 0.590800 -0.805800 0.039700
vn 0.805800 -0.590800 0.039700
vn 0.726800 -0.204000 0.655900
vn 0.987600 0.152000 0.039700
vn 0.726800 0.204000 0.655900
vn 0.987600 -0.152000 0.039700
vn 0.658000 -0.369600 0.656000
vn 0.369600 -0.658000 0.656000
vn 0.204000 -0.726800 0.655900
vn -0.204000 -0.726800 0.655900
vn -0.369600 -0.658000 0.656000
vn -0.658000 -0.369600 0.656000
vn -0.726800 -0.204000 0.655900
vn -0.726800 0.204000 0.655900
vn -0.658000 0.369600 0.656000
vn -0.369600 0.658000 0.656000
vn -0.204000 0.726800 0.655900
vn 0.204000 0.726800 0.655900
vn 0.369600 0.658000 0.656000
vn 0.658000 0.369600 0.656000
vn 0.000000 0.000000 1.000000
vn -0.262900 0.108900 0.958700
vn 0.262900 0.108900 0.958700
vn -0.108900 -0.262900 0.958700
vn -0.108900 0.262900 0.958700
vn 0.262900 -0.108900 0.958700
vn -0.262900 -0.108900 0.958700
vn 0.108900 0.262900 0.958700
usemtl IkeaGlassMaterial
s 1
f 1//1 2//1 3//1 4//1
f 5//2 6//2 7//2 8//2 9//2
f 10//3 11//3 12//3 6//3 5//3
f 13//4 14//4 15//4 11//4 10//4
f 16//5 17//5 18//5 14//5 13//5
f 19//6 20//6 21//6 17//6 16//6
f 2//7 22//7 23//7 20//7 19//7
f 1//8 24//8 25//8 22//8 2//8
f 9//9 8//9 26//9 24//9 1//9
f 27//10 28//10 29//10 30//10
f 31//11 32//11 28//11 27//11
f 33//12 34//12 32//12 31//12
f 35//13 36//13 34//13 33//13
f 37//14 38//14 36//14 35//14
f 39//15 40//15 38//15 37//15
f 41//16 42//16 40//16 39//16
f 43//17 44//17 42//17 41//17
f 45//18 46//18 44//18 43//18
f 47//19 48//19 46//19 45//19
f 49//20 50//20 48//20 47//20
f 51//21 52//21 50//21 49//21
f 53//22 54//22 52//22 51//22
f 55//23 56//23 54//23 53//23
f 57//24 55//24 26//24 8//24
f 30//25 29//25 58//25 57//25
f 7//26 30//26 57//26 8//26
f 58//27 56//27 55//27 57//27
f 26//28 55//28 53//28 24//28
f 24//29 53//29 51//29 25//29
f 25//30 51//30 49//30 22//30
f 22//31 49//31 47//31 23//31
f 23//32 47//32 45//32 20//32
f 20//33 45//33 43//33 21//33
f 21//34 43//34 41//34 17//34
f 17//35 41//35 39//35 18//35
f 18//36 39//36 37//36 14//36
f 14//37 37//37 35//37 15//37
f 15//38 35//38 33//38 11//38
f 11//39 33//39 31//39 12//39
f 12//40 31//41 27//42 6//43
f 6//44 27//44 30//44 7//44
f 59//45 4//45 3//45 60//45 61//45 62//45 63//45 64//45
f 16//46 13//46 62//46 61//46
f 5//47 9//47 59//47 64//47
f 2//48 19//48 60//48 3//48
f 13//49 10//49 63//49 62//49
f 9//50 1//50 4//50 59//50
f 19//51 16//51 61//51 60//51
f 10//52 5//52 64//52 63//52
f 65//53 66//53 67//53 68//53
f 69//54 70//54 71//54 72//54 73//54
f 74//55 69//55 73//55 75//55 76//55
f 77//56 74//56 76//56 78//56 79//56
f 80//57 77//57 79//57 81//57 82//57
f 83//58 80//58 82//58 84//58 85//58
f 68//59 83//59 85//59 86//59 87//59
f 65//60 68//60 87//60 88//60 89//60
f 70//61 65//61 89//61 90//61 71//61
f 91//62 92//62 93//62 94//62
f 95//63 91//63 94//63 96//63
f 97//64 95//64 96//64 98//64
f 99//65 97//65 98//65 100//65
f 101//66 99//66 100//66 102//66
f 103//67 101//67 102//67 104//67
f 105//68 103//68 104//68 106//68
f 107//69 105//69 106//69 108//69
f 109//70 107//70 108//70 110//70
f 111//71 109//71 110//71 112//71
f 113//72 111//72 112//72 114//72
f 115//73 113//73 114//73 116//73
f 117//74 115//74 116//74 118//74
f 119//75 117//75 118//75 120//75
f 121//76 71//76 90//76 119//76
f 92//77 121//77 122//77 93//77
f 72//78 71//78 121//78 92//78
f 122//79 121//79 119//79 120//79
f 90//80 89//80 117//80 119//80
f 89//81 88//81 115//81 117//81
f 88//82 87//82 113//82 115//82
f 87//83 86//83 111//83 113//83
f 86//84 85//84 109//84 111//84
f 85//85 84//85 107//85 109//85
f 84//86 82//86 105//86 107//86
f 82//87 81//87 103//87 105//87
f 81//88 79//88 101//88 103//88
f 79//89 78//89 99//89 101//89
f 78//90 76//90 97//90 99//90
f 76//91 75//91 95//91 97//91
f 75//92 73//92 91//92 95//92
f 73//93 72//93 92//93 91//93
f 123//94 124//94 125//94 126//94 127//94 128//94 67//94 66//94
f 80//95 127//95 126//95 77//95
f 69//96 124//96 123//96 70//96
f 68//97 67//97 128//97 83//97
f 77//98 126//98 125//98 74//98
f 70//99 123//99 66//99 65//99
f 83//100 128//100 127//100 80//100
f 74//101 125//101 124//101 69//101
f 56//94 58//94 122//94 120//94
f 52//94 54//94 118//94 116//94
f 48//94 50//94 114//94 112//94
f 44//94 46//94 110//94 108//94
f 40//94 42//94 106//94 104//94
f 36//94 38//94 102//94 100//94
f 32//94 34//94 98//94 96//94
f 29//94 28//94 94//94 93//94
f 54//94 56//94 120//94 118//94
f 50//94 52//94 116//94 114//94
f 46//94 48//94 112//94 110//94
f 42//94 44//94 108//94 106//94
f 38//94 40//94 104//94 102//94
f 34//94 36//94 100//94 98//94
f 28//94 32//94 96//94 94//94
f 58//94 29//94 93//94 122//94
