# Blender v2.76 (sub 0) OBJ File: ''
# www.blender.org
mtllib dart.mtl
o Cylinder.004
v -0.063905 -0.001244 0.000718
v -0.063905 -0.000718 0.001243
v -0.077969 -0.000487 0.000844
v -0.077969 -0.000844 0.000487
v -0.063905 0.001436 -0.000000
v -0.063905 0.001243 -0.000718
v -0.077969 0.000844 -0.000487
v -0.077969 0.000974 -0.000000
v -0.063905 -0.000000 -0.001436
v -0.063905 -0.000718 -0.001243
v -0.077969 -0.000487 -0.000844
v -0.077969 -0.000000 -0.000974
v -0.063905 0.001243 0.000718
v -0.033412 0.002110 0.001218
v -0.058704 0.015693 0.004609
v -0.070736 0.013143 0.004007
v -0.063905 0.000718 -0.001243
v -0.077969 0.000487 -0.000844
v -0.063905 -0.001244 -0.000718
v -0.077969 -0.000844 -0.000487
v -0.063905 -0.000000 0.001436
v -0.063905 0.000718 0.001243
v -0.077969 0.000487 0.000844
v -0.077969 -0.000000 0.000974
v -0.033412 -0.002110 -0.001218
v -0.033412 -0.002437 -0.000000
v -0.058704 -0.015895 -0.003855
v -0.058704 -0.015693 -0.004609
v -0.033412 0.001218 -0.002110
v -0.058704 0.004609 -0.015693
v -0.070736 0.004007 -0.013143
v -0.077969 -0.000974 -0.000000
v -0.077969 0.000844 0.000487
v -0.082014 0.005616 0.001844
v -0.082014 0.005786 0.001211
v -0.063905 -0.001436 -0.000000
v 0.027942 -0.003855 0.002225
v 0.027942 -0.002225 0.003855
v -0.033412 -0.001218 0.002110
v -0.033412 -0.002110 0.001218
v 0.027942 0.004451 -0.000000
v 0.027942 0.003855 -0.002225
v -0.033412 0.002110 -0.001218
v -0.033412 0.002437 -0.000000
v 0.027942 -0.000000 -0.004451
v 0.027942 -0.002225 -0.003855
v -0.033412 -0.001218 -0.002110
v -0.033412 -0.000000 -0.002437
v 0.027942 -0.000000 0.004451
v -0.033412 -0.000000 0.002437
v 0.027942 0.002225 -0.003855
v 0.027942 -0.003855 -0.002225
v 0.027942 0.002225 0.003855
v -0.033412 0.001218 0.002110
v 0.027942 -0.004451 -0.000000
v 0.027942 0.003855 0.002225
v -0.070736 -0.004007 0.013143
v -0.070736 -0.003101 0.013386
v -0.082014 -0.001211 0.005786
v -0.082014 -0.001844 0.005616
v -0.070736 0.003101 -0.013386
v -0.082014 0.001211 -0.005786
v -0.082014 0.001844 -0.005616
v -0.070736 -0.013143 -0.004007
v -0.070736 -0.013386 -0.003101
v -0.082014 -0.005786 -0.001211
v -0.082014 -0.005616 -0.001844
v -0.070736 0.013386 0.003101
v -0.058704 -0.004609 0.015693
v -0.058704 0.015895 0.003855
v -0.058704 0.003855 -0.015895
v -0.058704 -0.003855 0.015895
v 0.027970 -0.003855 0.002226
v 0.027970 -0.002226 0.003855
v 0.027970 0.004452 -0.000000
v 0.027970 0.003855 -0.002226
v 0.027970 -0.000000 -0.004452
v 0.027970 -0.002226 -0.003855
v 0.027970 -0.000000 0.004452
v 0.027970 0.002226 -0.003855
v 0.027970 -0.003855 -0.002226
v 0.027970 0.002226 0.003855
v 0.027970 -0.004452 -0.000000
v 0.027970 0.003855 0.002226
v 0.048546 -0.000000 -0.004918
v 0.027970 -0.000000 -0.004918
v 0.027970 0.002459 -0.004259
v 0.048546 0.002459 -0.004259
v 0.027970 0.004259 -0.002459
v 0.048546 0.004259 -0.002459
v 0.027970 0.004918 -0.000000
v 0.048546 0.004918 -0.000000
v 0.027970 0.004259 0.002459
v 0.048546 0.004259 0.002459
v 0.027970 0.002459 0.004259
v 0.048546 0.002459 0.004259
v 0.027970 -0.000000 0.004918
v 0.048546 -0.000000 0.004918
v 0.027970 -0.002459 0.004259
v 0.048546 -0.002459 0.004259
v 0.027970 -0.004259 0.002459
v 0.048546 -0.004259 0.002459
v 0.027970 -0.004918 -0.000000
v 0.048546 -0.004918 -0.000000
v 0.027970 -0.004259 -0.002459
v 0.048546 -0.004259 -0.002459
v 0.048546 -0.002459 -0.004259
v 0.027970 -0.002459 -0.004259
v 0.049914 -0.001967 -0.003406
v 0.049914 -0.003406 -0.001967
v 0.050582 -0.000385 -0.000667
v 0.050582 -0.000667 -0.000385
v 0.049914 -0.000000 0.003933
v 0.049914 0.001967 0.003406
v 0.049914 -0.003933 -0.000000
v 0.049914 -0.003406 0.001967
v 0.049914 0.003406 0.001967
v 0.049914 0.003933 -0.000000
v 0.049914 0.001967 -0.003406
v 0.049914 -0.000000 -0.003933
v 0.049914 -0.001967 0.003406
v 0.049914 0.003406 -0.001967
v 0.050582 -0.000000 -0.000771
v 0.076832 -0.000000 -0.000530
v 0.076832 -0.000265 -0.000459
v 0.050582 -0.000000 0.000771
v 0.050582 0.000385 0.000667
v 0.050582 0.000385 -0.000667
v 0.050582 -0.000771 -0.000000
v 0.050582 0.000667 0.000385
v 0.050582 -0.000667 0.000385
v 0.050582 0.000771 -0.000000
v 0.050582 -0.000385 0.000667
v 0.050582 0.000667 -0.000385
v 0.076832 -0.000265 0.000459
v 0.076832 -0.000000 0.000530
v 0.076832 0.000459 -0.000265
v 0.076832 0.000265 -0.000459
v 0.076832 -0.000459 -0.000265
v 0.076832 0.000265 0.000459
v 0.076832 -0.000530 -0.000000
v 0.076832 0.000459 0.000265
v 0.076832 -0.000459 0.000265
v 0.076832 0.000530 -0.000000
v 0.077986 -0.000000 -0.000000
vt 0.000000 0.000000
vt 0.942992 0.888687
vt 0.942992 0.844430
vt 0.948270 0.844430
vt 0.948270 0.888687
vt 0.952134 0.844430
vt 0.952134 0.888687
vt 0.953548 0.844430
vt 0.953548 0.888687
vt 0.937714 0.844430
vt 0.937714 0.888687
vt 0.933850 0.844430
vt 0.933850 0.888687
vt 0.932436 0.844430
vt 0.932436 0.888687
vt 0.934717 0.844430
vt 0.933437 0.844430
vt 0.938771 0.891630
vt 0.935681 0.891630
vt 0.942165 0.893067
vt 0.941559 0.893067
vt 0.942992 0.891630
vt 0.947213 0.891630
vt 0.934549 0.891630
vt 0.950303 0.891630
vt 0.951434 0.891630
vt 0.942992 0.893067
vt 0.942992 0.949529
vt 0.942423 0.949529
vt 0.943819 0.893067
vt 0.941338 0.893067
vt 0.944424 0.893067
vt 0.944646 0.893067
vt 0.943977 0.949529
vt 0.943560 0.949529
vt 0.942007 0.949529
vt 0.941855 0.949529
vt 0.944129 0.949529
vt 0.947770 0.844430
vt 0.938214 0.844430
vt 0.951267 0.844430
vt 0.952547 0.844430
vt 0.942992 0.952012
vn -0.032800 -0.865600 0.499700
vn -0.021100 -0.966300 0.256400
vn -0.790200 -0.605900 -0.091900
vn -0.665400 -0.646500 0.373200
vn -0.021100 0.705200 -0.708700
vn -0.032800 0.865600 -0.499700
vn -0.665400 0.646500 -0.373300
vn -0.790200 0.223400 -0.570700
vn -0.021100 -0.708700 -0.705200
vn -0.032800 -0.499700 -0.865600
vn -0.665400 -0.373200 -0.646500
vn -0.790200 -0.570700 -0.223400
vn -0.021100 0.256400 0.966300
vn 0.099500 0.811100 0.576400
vn 0.109700 0.575300 0.810600
vn -0.301100 0.483000 0.822200
vn -0.021100 0.966300 -0.256400
vn -0.790200 0.605900 0.091900
vn -0.021100 -0.256400 -0.966300
vn -0.790200 0.091900 -0.605900
vn -0.021100 0.708700 0.705200
vn -0.032800 0.499700 0.865600
vn -0.665400 0.373300 0.646500
vn -0.790200 0.570700 0.223400
vn 0.099500 -0.811000 -0.576400
vn 0.099500 -0.990600 0.093700
vn 0.109700 -0.903500 0.414400
vn 0.109700 -0.575300 -0.810600
vn 0.099500 0.576400 -0.811000
vn 0.109700 0.810600 -0.575300
vn -0.301100 0.822200 -0.483000
vn -0.790200 -0.223400 0.570700
vn -0.790200 -0.091900 0.605900
vn -0.812100 -0.039600 0.582100
vn -0.812100 0.256700 -0.524000
vn -0.021100 -0.705200 0.708700
vn -0.032700 -0.499700 0.865600
vn 0.099500 -0.576500 0.811000
vn -0.032800 0.999500 0.000000
vn -0.032700 0.865600 -0.499700
vn 0.099500 0.990600 -0.093700
vn -0.032900 -0.000000 -0.999500
vn -0.032900 -0.499700 -0.865600
vn 0.099500 -0.093700 -0.990600
vn -0.032700 -0.000000 0.999500
vn 0.099500 0.093700 0.990600
vn -0.032800 0.499700 -0.865600
vn -0.032900 -0.865600 -0.499700
vn -0.032700 0.499700 0.865600
vn -0.032800 -0.999500 -0.000000
vn -0.032800 0.865600 0.499700
vn -0.301100 -0.822200 0.483000
vn -0.301100 0.470500 0.829400
vn -0.812100 0.524000 0.256700
vn -0.812100 -0.582100 -0.039600
vn -0.301100 -0.470500 -0.829400
vn -0.812100 -0.524000 -0.256700
vn -0.812100 0.582100 0.039600
vn -0.301100 -0.483000 -0.822200
vn -0.301100 -0.829400 0.470500
vn -0.812100 -0.256700 0.523900
vn -0.812100 0.039600 -0.582100
vn -0.301100 0.829400 -0.470500
vn 0.109700 -0.810600 0.575300
vn 0.109700 0.903500 -0.414400
vn 0.109700 -0.414300 -0.903500
vn 0.109700 0.414300 0.903500
vn -0.780300 -0.541600 0.312700
vn -0.780300 -0.312700 0.541600
vn -0.780300 0.625400 0.000000
vn -0.780300 0.541600 -0.312700
vn -0.780400 0.000000 -0.625300
vn -0.780400 -0.312600 -0.541500
vn -0.780200 0.000000 0.625500
vn -0.780300 0.312700 -0.541600
vn -0.780400 -0.541500 -0.312700
vn -0.780300 0.312700 0.541600
vn -0.780300 -0.625400 0.000000
vn -0.780300 0.541600 0.312700
vn 0.293100 0.000000 -0.956100
vn -0.653200 0.000000 -0.757200
vn -0.653200 0.378600 -0.655700
vn 0.293100 0.478000 -0.828000
vn -0.653200 0.655700 -0.378600
vn 0.293100 0.828000 -0.478000
vn -0.653200 0.757200 0.000000
vn 0.293100 0.956100 -0.000000
vn -0.653200 0.655700 0.378600
vn 0.293100 0.828000 0.478000
vn -0.653200 0.378600 0.655700
vn 0.293100 0.478000 0.828000
vn -0.653200 0.000000 0.757200
vn 0.293100 0.000000 0.956100
vn -0.653200 -0.378600 0.655700
vn 0.293100 -0.478000 0.828000
vn -0.653200 -0.655700 0.378600
vn 0.293100 -0.828000 0.478000
vn -0.653200 -0.757200 0.000000
vn 0.293100 -0.956100 0.000000
vn -0.653200 -0.655700 -0.378600
vn 0.293100 -0.828000 -0.478000
vn 0.293100 -0.478000 -0.828000
vn -0.653200 -0.378600 -0.655700
vn 0.810700 -0.292700 -0.507000
vn 0.810700 -0.507000 -0.292700
vn 0.689000 -0.362400 -0.627700
vn 0.689000 -0.627700 -0.362400
vn 0.810700 0.000000 0.585400
vn 0.810700 0.292700 0.507000
vn 0.810700 -0.585400 0.000000
vn 0.810700 -0.507000 0.292700
vn 0.810700 0.507000 0.292700
vn 0.810700 0.585400 -0.000000
vn 0.810700 0.292700 -0.507000
vn 0.810700 0.000000 -0.585400
vn 0.810700 -0.292700 0.507000
vn 0.810700 0.507000 -0.292700
vn 0.689000 0.000000 -0.724800
vn 0.210900 0.000000 -0.977500
vn 0.210900 -0.488800 -0.846500
vn 0.689000 -0.000000 0.724800
vn 0.689000 0.362400 0.627700
vn 0.689000 0.362400 -0.627700
vn 0.689000 -0.724800 -0.000000
vn 0.689000 0.627700 0.362400
vn 0.689000 -0.627700 0.362400
vn 0.689000 0.724800 -0.000000
vn 0.689000 -0.362400 0.627700
vn 0.689000 0.627700 -0.362400
vn 0.211000 -0.488700 0.846500
vn 0.211000 0.000000 0.977500
vn 0.210900 0.846500 -0.488800
vn 0.210900 0.488800 -0.846500
vn 0.210900 -0.846500 -0.488700
vn 0.211000 0.488700 0.846500
vn 0.210900 -0.977500 -0.000000
vn 0.210900 0.846500 0.488800
vn 0.210900 -0.846500 0.488700
vn 0.210900 0.977500 -0.000000
vn 1.000000 -0.000000 -0.000000
usemtl green_dart
s 1
f 1/1/1 2/1/2 3/1/3 4/1/4
f 5/1/5 6/1/6 7/1/7 8/1/8
f 9/1/9 10/1/10 11/1/11 12/1/12
f 13/1/13 14/1/14 15/1/15 16/1/16
f 6/1/6 17/1/17 18/1/18 7/1/7
f 10/1/10 19/1/19 20/1/20 11/1/11
f 21/1/21 22/1/22 23/1/23 24/1/24
f 25/1/25 26/1/26 27/1/27 28/1/28
f 17/1/17 29/1/29 30/1/30 31/1/31
f 18/1/18 12/1/12 11/1/11 20/1/20 32/1/32 4/1/4 3/1/3 24/1/24 23/1/23 33/1/33 8/1/8 7/1/7
f 22/1/22 13/1/13 33/1/33 23/1/23
f 8/1/8 33/1/33 34/1/34 35/1/35
f 36/1/36 1/1/1 4/1/4 32/1/32
f 37/1/1 38/1/37 39/1/38 40/1/1
f 41/1/39 42/1/40 43/1/6 44/1/41
f 45/1/42 46/1/43 47/1/10 48/1/44
f 38/1/37 49/1/45 50/1/46 39/1/38
f 42/1/40 51/1/47 29/1/29 43/1/6
f 46/1/43 52/1/48 25/1/25 47/1/10
f 49/1/45 53/1/49 54/1/22 50/1/46
f 51/1/47 45/1/42 48/1/44 29/1/29
f 52/1/48 55/1/50 26/1/26 25/1/25
f 53/1/49 56/1/51 14/1/14 54/1/22
f 56/1/51 41/1/39 44/1/41 14/1/14
f 55/1/50 37/1/1 40/1/1 26/1/26
f 57/1/52 58/1/53 59/1/54 60/1/55
f 31/1/31 61/1/56 62/1/57 63/1/58
f 64/1/59 65/1/60 66/1/61 67/1/62
f 16/1/16 68/1/63 35/1/35 34/1/34
f 2/1/2 39/1/38 69/1/64 57/1/52
f 32/1/32 20/1/20 67/1/62 66/1/61
f 9/1/9 12/1/12 62/1/57 61/1/56
f 5/1/5 8/1/8 35/1/35 68/1/63
f 21/1/21 24/1/24 59/1/54 58/1/53
f 24/1/24 3/1/3 60/1/55 59/1/54
f 19/1/19 25/1/25 28/1/28 64/1/59
f 14/1/14 44/1/41 70/1/65 15/1/15
f 29/1/29 48/1/44 71/1/66 30/1/30
f 39/1/38 50/1/46 72/1/67 69/1/64
f 36/1/36 32/1/32 66/1/61 65/1/60
f 12/1/12 18/1/18 63/1/58 62/1/57
f 40/1/1 39/1/38 2/1/2 1/1/1
f 44/1/41 43/1/6 6/1/6 5/1/5
f 48/1/44 47/1/10 10/1/10 9/1/9
f 33/1/33 13/1/13 16/1/16 34/1/34
f 43/1/6 29/1/29 17/1/17 6/1/6
f 47/1/10 25/1/25 19/1/19 10/1/10
f 50/1/46 54/1/22 22/1/22 21/1/21
f 18/1/18 17/1/17 31/1/31 63/1/58
f 54/1/22 14/1/14 13/1/13 22/1/22
f 26/1/26 40/1/1 1/1/1 36/1/36
f 69/1/64 72/1/67 58/1/53 57/1/52
f 30/1/30 71/1/66 61/1/56 31/1/31
f 28/1/28 27/1/27 65/1/60 64/1/59
f 15/1/15 70/1/65 68/1/63 16/1/16
f 3/1/3 2/1/2 57/1/52 60/1/55
f 48/1/44 9/1/9 61/1/56 71/1/66
f 44/1/41 5/1/5 68/1/63 70/1/65
f 50/1/46 21/1/21 58/1/53 72/1/67
f 20/1/20 19/1/19 64/1/59 67/1/62
f 26/1/26 36/1/36 65/1/60 27/1/27
f 73/1/68 74/1/69 38/1/37 37/1/1
f 75/1/70 76/1/71 42/1/40 41/1/39
f 77/1/72 78/1/73 46/1/43 45/1/42
f 74/1/69 79/1/74 49/1/45 38/1/37
f 76/1/71 80/1/75 51/1/47 42/1/40
f 78/1/73 81/1/76 52/1/48 46/1/43
f 79/1/74 82/1/77 53/1/49 49/1/45
f 80/1/75 77/1/72 45/1/42 51/1/47
f 81/1/76 83/1/78 55/1/50 52/1/48
f 82/1/77 84/1/79 56/1/51 53/1/49
f 84/1/79 75/1/70 41/1/39 56/1/51
f 83/1/78 73/1/68 37/1/1 55/1/50
usemtl metal
f 85/2/80 86/3/81 87/4/82 88/5/83
f 88/5/83 87/4/82 89/6/84 90/7/85
f 90/7/85 89/6/84 91/8/86 92/9/87
f 92/9/87 91/8/86 93/6/88 94/7/89
f 94/7/89 93/6/88 95/4/90 96/5/91
f 96/5/91 95/4/90 97/3/92 98/2/93
f 98/2/93 97/3/92 99/10/94 100/11/95
f 100/11/95 99/10/94 101/12/96 102/13/97
f 102/13/97 101/12/96 103/14/98 104/15/99
f 104/15/99 103/14/98 105/12/100 106/13/101
f 103/14/98 101/12/96 73/16/68 83/17/78
f 107/11/102 108/10/103 86/3/81 85/2/80
f 106/13/101 105/12/100 108/10/103 107/11/102
f 106/13/101 107/11/102 109/18/104 110/19/105
f 110/19/105 109/18/104 111/20/106 112/21/107
f 96/5/91 98/2/93 113/22/108 114/23/109
f 102/13/97 104/15/99 115/24/110 116/19/111
f 92/9/87 94/7/89 117/25/112 118/26/113
f 85/2/80 88/5/83 119/23/114 120/22/115
f 107/11/102 85/2/80 120/22/115 109/18/104
f 98/2/93 100/11/95 121/18/116 113/22/108
f 88/5/83 90/7/85 122/25/117 119/23/114
f 104/15/99 106/13/101 110/19/105 115/24/110
f 94/7/89 96/5/91 114/23/109 117/25/112
f 100/11/95 102/13/97 116/19/111 121/18/116
f 90/7/85 92/9/87 118/26/113 122/25/117
f 111/20/106 123/27/118 124/28/119 125/29/120
f 114/23/109 113/22/108 126/27/121 127/30/122
f 120/22/115 119/23/114 128/30/123 123/27/118
f 115/24/110 110/19/105 112/21/107 129/31/124
f 117/25/112 114/23/109 127/30/122 130/32/125
f 116/19/111 115/24/110 129/31/124 131/21/126
f 118/26/113 117/25/112 130/32/125 132/33/127
f 121/18/116 116/19/111 131/21/126 133/20/128
f 122/25/117 118/26/113 132/33/127 134/32/129
f 109/18/104 120/22/115 123/27/118 111/20/106
f 113/22/108 121/18/116 133/20/128 126/27/121
f 119/23/114 122/25/117 134/32/129 128/30/123
f 126/27/121 133/20/128 135/29/130 136/28/131
f 128/30/123 134/32/129 137/34/132 138/35/133
f 112/21/107 111/20/106 125/29/120 139/36/134
f 127/30/122 126/27/121 136/28/131 140/35/135
f 123/27/118 128/30/123 138/35/133 124/28/119
f 129/31/124 112/21/107 139/36/134 141/37/136
f 130/32/125 127/30/122 140/35/135 142/34/137
f 131/21/126 129/31/124 141/37/136 143/36/138
f 132/33/127 130/32/125 142/34/137 144/38/139
f 133/20/128 131/21/126 143/36/138 135/29/130
f 134/32/129 132/33/127 144/38/139 137/34/132
f 97/3/92 95/4/90 82/39/77 79/3/74
f 108/10/103 105/12/100 81/16/76 78/40/73
f 91/8/86 89/6/84 76/41/71 75/42/70
f 101/12/96 99/10/94 74/40/69 73/16/68
f 95/4/90 93/6/88 84/41/79 82/39/77
f 105/12/100 103/14/98 83/17/78 81/16/76
f 89/6/84 87/4/82 80/39/75 76/41/71
f 99/10/94 97/3/92 79/3/74 74/40/69
f 86/3/81 108/10/103 78/40/73 77/3/72
f 87/4/82 86/3/81 77/3/72 80/39/75
f 93/6/88 91/8/86 75/42/70 84/41/79
f 135/29/130 143/36/138 145/43/140
f 137/34/132 144/38/139 145/43/140
f 125/29/120 124/28/119 145/43/140
f 136/28/131 135/29/130 145/43/140
f 138/35/133 137/34/132 145/43/140
f 139/36/134 125/29/120 145/43/140
f 140/35/135 136/28/131 145/43/140
f 124/28/119 138/35/133 145/43/140
f 141/37/136 139/36/134 145/43/140
f 142/34/137 140/35/135 145/43/140
f 143/36/138 141/37/136 145/43/140
f 144/38/139 142/34/137 145/43/140
