# Blender v2.76 (sub 0) OBJ File: ''
# www.blender.org
mtllib court_without_net.mtl
o Court_Untitled.001
v -7.239000 -3.556000 0.000000
v 7.239000 -3.556000 0.000000
v -7.239000 3.556000 0.000000
v 7.239000 3.556000 0.000000
v -7.239000 -3.556000 0.010000
v 7.239000 -3.556000 0.010000
v -7.239000 3.556000 0.010000
v 7.239000 3.556000 0.010000
vt 0.000000 0.000000
vt 1.000000 0.000000
vt 1.000000 1.000000
vt 0.000000 1.000000
vn -0.000000 0.000000 1.000000
vn 0.000000 0.000000 -1.000000
vn 0.000000 -1.000000 0.000000
vn 1.000000 0.000000 0.000000
vn -0.000000 1.000000 0.000000
vn -1.000000 0.000000 0.000000
usemtl 01_-_Default
s 1
f 5/1/1 6/2/1 8/3/1 7/4/1
usemtl 08_-_Default
f 1/2/2 3/3/2 4/4/2 2/1/2
f 1/1/3 2/2/3 6/3/3 5/4/3
f 2/1/4 4/2/4 8/3/4 6/4/4
f 4/1/5 3/2/5 7/3/5 8/4/5
f 3/1/6 1/2/6 5/3/6 7/4/6
